<?xml version="1.0" encoding="utf-8"?>
<!-- Generator: Adobe Illustrator 26.5.0, SVG Export Plug-In . SVG Version: 6.00 Build 0)  -->
<svg version="1.1" id="Lager_1" xmlns="http://www.w3.org/2000/svg" xmlns:xlink="http://www.w3.org/1999/xlink" x="0px" y="0px"
	 viewBox="0 0 218.75 85.74" style="enable-background:new 0 0 218.75 85.74;" xml:space="preserve">
<style type="text/css">
	.st0{fill:#936037;}
	.st1{fill:#881813;}
	.st2{fill:#B61822;}
	.st3{fill:#63130F;}
	.st4{fill:#F9B233;}
	.st5{fill:#878787;}
	.st6{fill:#575756;}
	.st7{fill:#B2B2B2;}
	.st8{fill:#FFFFFF;}
</style>
<g>
	<path class="st0" d="M150.32,38.1L150.32,38.1c22.4-5.31,45.44-7.35,68.43-6.05l0,0l-0.95-10.74l0,0
		c-22.98-1.3-46.03,0.74-68.43,6.05l0,0L150.32,38.1z"/>
</g>
<g>
	<path class="st1" d="M24.57,73.44c13.71-6.69,12.09-6.55,19.47-10.16c37.2-18.19,65.86-28.27,105.59-36.03l0,0l3.07,10.33l0,0
		c-46.02,8.17-90.32,24.08-131.03,47.04l-1.17,0.66l4.33-11.39"/>
</g>
<g>
	<path class="st2" d="M151.13,34.96c-9.67,0.35-45.35,11.41-51.55,13.16c-27.07,7.67-74.26,31.06-77.1,33.32
		c-0.86,0.68-2.89,4.4-1.97,3.84c26.46-16.01,74.96-33.53,79.4-34.7c6.59-1.73,26.73-8.95,51.58-12.87"/>
</g>
<g>
	<path class="st3" d="M148.28,27.52c-12.41,2.1-26.84,5.89-40.81,9.89c-23.04,6.59-71.45,28.05-82.99,35.43
		c-2.6,1.67-5.2,14.54-3.97,12.45c8.1-13.76,41.5-30.61,88.02-45.26c10.7-3.37,30.94-8.37,41-9.56"/>
</g>
<g>
	<path class="st4" d="M155.26,46.28c2.21-0.35,3.74-2.45,3.39-4.66l-3.18-20.09c-0.35-2.21-2.45-3.74-4.66-3.39
		c-2.21,0.35-3.74,2.45-3.39,4.66l3.18,20.09C150.95,45.11,153.04,46.64,155.26,46.28z"/>
</g>
<g>
	<path class="st0" d="M68.43,38.33L68.43,38.33C46.03,33.02,22.98,30.98,0,32.27l0,0l0.95-10.74l0,0
		c22.98-1.3,46.03,0.74,68.43,6.05l0,0L68.43,38.33z"/>
</g>
<g>
	<path class="st5" d="M194.17,73.66c-13.71-6.69-12.09-6.55-19.47-10.16c-37.2-18.19-65.86-28.27-105.59-36.03l0,0l-3.07,10.33l0,0
		c46.02,8.17,90.32,24.08,131.03,47.04l1.17,0.66l-4.33-11.39"/>
</g>
<g>
	<path class="st6" d="M67.62,35.19c9.67,0.35,45.35,11.41,51.55,13.16c27.07,7.67,74.26,31.06,77.1,33.32
		c0.86,0.68,2.89,4.4,1.97,3.84c-26.46-16.01-74.96-33.53-79.4-34.7c-6.59-1.73-26.73-8.95-51.58-12.87"/>
</g>
<g>
	<path class="st7" d="M70.47,27.75c12.41,2.1,26.84,5.89,40.81,9.89c23.04,6.59,71.45,28.05,82.99,35.43
		c2.6,1.67,5.2,14.54,3.97,12.45c-8.1-13.76-41.5-30.61-88.02-45.26c-10.7-3.37-30.94-8.37-41-9.56"/>
</g>
<g>
	<path class="st4" d="M63.49,46.51c-2.21-0.35-3.74-2.45-3.39-4.66l3.18-20.09c0.35-2.21,2.45-3.74,4.66-3.39
		c2.21,0.35,3.74,2.45,3.39,4.66l-3.18,20.09C67.8,45.34,65.7,46.86,63.49,46.51z"/>
</g>
<g>
</g>
<g>
</g>
<g>
	<path class="st8" d="M74.46,12.35c0.09,0.14,0.12,0.33,0.05,0.49l-0.35,0.98l-0.07,0.14l-0.49,0.63c-0.05,0.07-0.12,0.12-0.19,0.16
		c-0.28,0.12-0.51,0.3-0.68,0.54c-0.37,0.4-0.82,0.7-1.31,0.89c-0.14,0.07-0.28,0.14-0.4,0.23l-0.26,0.16
		c-0.19,0.09-0.37,0.19-0.58,0.26c-0.09,0.02-0.19,0.05-0.28,0.05c-0.3,0-0.61-0.02-0.91-0.02c-0.12,0-0.23,0.02-0.33,0.07
		c-0.19,0.16-0.47,0.19-0.7,0.07c-0.21-0.07-0.42-0.09-0.63-0.07h-0.84c-0.09,0-0.19-0.02-0.26-0.07c-0.26-0.23-0.61-0.21-0.91-0.28
		c-0.16-0.02-0.33-0.05-0.49-0.05c-0.07,0-0.14-0.02-0.21-0.05l-1.19-0.47l-0.65-0.33l-0.37,0.75c-0.09,0.14-0.19,0.28-0.3,0.4
		c-0.12,0.12-0.3,0.12-0.44,0c-0.07-0.05-0.12-0.12-0.12-0.21c0-0.09,0.02-0.19,0.07-0.26c0.14-0.12,0.19-0.3,0.14-0.49
		c0-0.07,0-0.14,0.02-0.21c0.05-0.12,0.09-0.26,0.12-0.4c0-0.49,0-0.98-0.02-1.47l-0.09-1.12c0-0.23,0.07-0.33,0.23-0.35
		c0.21-0.02,0.3,0.05,0.37,0.26L62.55,13c0.02,0.05,0.07,0.12,0.05,0.16c-0.09,0.26,0.09,0.4,0.26,0.51
		c0.14,0.09,0.26,0.26,0.3,0.44c0.12,0.37,0.37,0.68,0.7,0.86l0.49,0.3c0.14,0.09,0.28,0.16,0.42,0.23c0.4,0.16,0.79,0.33,1.19,0.47
		c0.19,0.07,0.37,0.09,0.56,0.09c0.35-0.02,0.7,0,1.05,0.05c0.28,0.05,0.56,0.02,0.84-0.05c0.28-0.07,0.56-0.09,0.84-0.12
		c0.42-0.05,0.75-0.3,1.1-0.51c0.21-0.16,0.42-0.33,0.61-0.51c0.37-0.35,0.65-0.77,0.84-1.24v-0.07c0.02-0.56,0.14-1.12-0.09-1.66
		c-0.05-0.07-0.07-0.14-0.09-0.21c0-0.35-0.23-0.58-0.4-0.86c-0.19-0.26-0.42-0.47-0.7-0.63c-0.16-0.14-0.33-0.3-0.47-0.47
		c-0.07-0.09-0.16-0.16-0.28-0.21L69.54,9.5c-0.21-0.05-0.4-0.16-0.54-0.33c-0.09-0.09-0.21-0.16-0.33-0.21L68.4,8.83l-0.98-0.42
		h-0.07c-0.42,0.07-0.72-0.21-1.07-0.33c-0.26-0.09-0.47-0.28-0.7-0.4c-0.23-0.12-0.49-0.21-0.75-0.28
		c-0.19-0.05-0.35-0.14-0.49-0.26c-0.09-0.09-0.26-0.12-0.33-0.21c-0.19-0.23-0.47-0.33-0.7-0.49c-0.35-0.23-0.68-0.49-0.96-0.79
		c-0.3-0.35-0.44-0.82-0.37-1.26l0.21-1.12c0.07-0.28,0.16-0.54,0.3-0.77c0.12-0.23,0.28-0.44,0.49-0.61l0.35-0.3
		c0.05-0.05,0.09-0.07,0.14-0.09l0.7-0.28c0.14-0.05,0.28-0.07,0.42-0.09l0.21-0.05c0.77-0.26,1.56-0.35,2.33-0.54
		c0.12-0.02,0.23-0.02,0.35,0c0.42,0.12,0.84,0.19,1.28,0.21c0.07,0,0.14,0.02,0.21,0.05c0.14,0.05,0.28,0.05,0.42,0.02
		c0.14-0.02,0.28,0,0.42,0.07c0.33,0.16,0.68,0.26,1.03,0.28c0.09,0,0.19,0.02,0.26,0.07l1.4,0.86V1.83c0-0.19,0.09-0.37,0.26-0.49
		c0.16-0.12,0.37-0.16,0.56-0.12c0.09,0.05,0.19,0.09,0.26,0.16c0.05,0.05,0.07,0.09,0.07,0.16c0,0.07-0.02,0.14-0.07,0.19
		c-0.12,0.14-0.19,0.33-0.19,0.51c-0.07,0.28-0.12,0.56-0.14,0.86c-0.02,0.47-0.02,0.93,0,1.4c0.02,0.23,0.07,0.47,0.12,0.7v0.07
		c0.02,0.23-0.05,0.4-0.21,0.47c-0.16,0.07-0.33-0.02-0.44-0.23c-0.19-0.3-0.16-0.65-0.23-0.98l-0.09-0.35
		c-0.02-0.07-0.05-0.14-0.05-0.21c0-0.28-0.16-0.54-0.4-0.68c-0.33-0.16-0.61-0.4-0.84-0.68c-0.07-0.09-0.16-0.16-0.26-0.21L70.15,2
		c-0.07-0.05-0.16-0.07-0.26-0.09c-0.28-0.02-0.56-0.12-0.79-0.28C69,1.58,68.91,1.55,68.82,1.53c-0.14-0.02-0.28-0.07-0.42-0.12
		c-0.23-0.09-0.49-0.12-0.75-0.07c-0.05,0.02-0.09,0.02-0.14,0.02c-0.47,0-0.93,0.07-1.38,0.21C66,1.62,65.83,1.6,65.69,1.65
		c-0.33,0.07-0.63,0.16-0.93,0.28c-0.37,0.16-0.63,0.49-0.72,0.89l-0.21,0.77c-0.09,0.21-0.09,0.47,0,0.68
		c0.05,0.07,0.07,0.14,0.07,0.21c0.02,0.37,0.21,0.72,0.51,0.96c0.37,0.33,0.77,0.63,1.19,0.91c0.33,0.19,0.65,0.37,1,0.54
		c0.12,0.05,0.23,0.09,0.35,0.12c0.14,0.05,0.28,0.09,0.42,0.16c0.21,0.12,0.42,0.21,0.63,0.3c0.44,0.19,0.91,0.3,1.35,0.49
		l0.14,0.07c0.26,0.19,0.56,0.3,0.86,0.37c0.09,0.02,0.16,0.07,0.23,0.12l1.19,0.7c0.05,0.02,0.09,0.05,0.14,0.09l0.91,0.84
		c0.07,0.07,0.12,0.16,0.19,0.26l0.42,0.42c0.05,0.07,0.07,0.16,0.12,0.21c0.35,0.26,0.4,0.65,0.47,1.03
		c0.02,0.14,0.07,0.28,0.16,0.4L74.46,12.35z"/>
	<path class="st8" d="M89.29,16.26c0.07,0.14,0.05,0.33-0.05,0.47c-0.05,0.09-0.14,0.16-0.23,0.19s-0.19,0-0.26-0.05
		c-0.14-0.09-0.3-0.12-0.47-0.05c-0.14,0.07-0.3-0.02-0.44-0.07c-0.16-0.07-0.33-0.07-0.49-0.02c-0.19,0.07-0.4,0.09-0.58,0.05
		c-0.28-0.07-0.58,0-0.86-0.09c-0.07-0.02-0.14,0-0.21,0.05c-0.21,0.14-0.47,0.19-0.7,0.12c-0.16-0.02-0.33-0.05-0.49-0.05h-0.14
		c-0.61-0.14-1.21-0.02-1.82-0.05c-0.47-0.02-0.93,0-1.4,0c-0.47,0-0.93,0.05-1.38,0.16c-0.4,0.07-0.79,0.09-1.19,0.05
		c-0.42-0.05-0.84-0.07-1.26-0.09L76.4,16.8c-0.09,0-0.19-0.05-0.26-0.12s-0.09-0.16-0.09-0.26c0-0.09,0.05-0.19,0.12-0.26
		c0.07-0.07,0.16-0.09,0.26-0.09c0.28-0.02,0.56-0.07,0.82-0.14c0.14-0.02,0.3-0.05,0.47-0.05c0.35,0.02,0.68-0.21,0.77-0.54
		c0.19-0.44,0.14-0.86,0.12-1.31c-0.02-0.26-0.02-0.51,0-0.77c0.02-0.23,0.02-0.47,0.02-0.7v-0.63c0-0.09-0.02-0.19-0.07-0.28
		c-0.05-0.09-0.07-0.21-0.05-0.33c0.05-0.42-0.02-0.84,0-1.24c0-0.35,0.02-0.7,0.09-1.03c0.02-0.05,0.02-0.09,0.02-0.14
		c-0.14-0.44,0.05-0.86,0.05-1.31c0-0.12,0.02-0.21,0.02-0.3c-0.02-0.16,0-0.33,0.07-0.49c0.05-0.09,0.07-0.21,0.07-0.33
		c0-0.19,0.02-0.37,0.05-0.56c0.02-0.28,0.02-0.56-0.02-0.84C78.82,4.91,78.8,4.7,78.8,4.49c0.02-0.65-0.05-1.31-0.05-1.96
		c-0.02-0.23-0.05-0.47-0.09-0.7c-0.02-0.14-0.12-0.26-0.26-0.33c-0.35-0.19-0.75-0.28-1.14-0.3c-0.21,0.02-0.42-0.02-0.61-0.12
		c-0.07-0.02-0.14-0.05-0.21-0.05c-0.16,0-0.3-0.14-0.3-0.3c-0.02-0.19,0.12-0.35,0.3-0.37c0.33-0.02,0.65-0.02,0.98,0
		c0.4,0.07,0.82,0.09,1.24,0.05c0.09-0.02,0.19-0.02,0.28,0c0.16,0.02,0.33,0,0.49-0.05c0.16-0.07,0.35-0.05,0.49,0.05
		c0.05,0.02,0.09,0.05,0.14,0.05c0.56-0.05,1.12,0.12,1.68,0.05c0.77-0.09,1.54-0.05,2.31-0.05c0.12,0,0.23,0.02,0.35,0.05
		c0.12,0.02,0.26,0.02,0.37-0.02c0.21-0.05,0.44-0.05,0.68,0c0.75,0.12,1.49,0.14,2.24,0.05c0.26-0.02,0.51-0.02,0.77,0l0.19-0.35
		c0.07-0.14,0.23-0.21,0.4-0.16c0.14,0.05,0.23,0.19,0.23,0.35c0.02,0.26,0,0.51-0.09,0.75c-0.05,0.16-0.07,0.33-0.07,0.49
		c-0.05,0.54,0.02,1.07-0.07,1.61c0,0.16,0.02,0.33,0.07,0.49c0.02,0.14,0.02,0.28-0.02,0.4c-0.05,0.14-0.19,0.23-0.35,0.23
		c-0.14,0-0.28-0.09-0.33-0.23C88.38,4,88.36,3.91,88.36,3.81c-0.02-0.3-0.14-0.61-0.05-0.93c0-0.02,0-0.05-0.02-0.07
		c-0.19-0.33-0.14-0.72-0.28-1.07c-0.09-0.28-0.21-0.42-0.49-0.44c-0.14-0.02-0.28-0.02-0.42,0.02c-0.07,0.02-0.14,0.05-0.21,0
		c-0.28-0.21-0.61-0.12-0.91-0.07c-0.35,0.05-0.7,0.07-1.05,0.07c-0.26,0-0.51-0.05-0.75-0.16c-0.14-0.09-0.33-0.09-0.47-0.02
		c-0.09,0.05-0.21,0.07-0.33,0.05c-0.3-0.05-0.63-0.02-0.93,0.05c-0.28,0.05-0.58,0.07-0.89,0.05c-0.21-0.02-0.42-0.02-0.63,0
		c-0.26,0.02-0.33,0.09-0.37,0.35c-0.07,0.35-0.05,0.72,0.07,1.07c0.07,0.14,0.09,0.3,0.07,0.47c-0.02,0.33,0,0.65,0.07,0.98
		c0.05,0.4,0.02,0.82-0.07,1.21c-0.02,0.07-0.05,0.14-0.05,0.21c0.02,0.49-0.05,0.96-0.05,1.42c0,0.21-0.02,0.42-0.07,0.61
		c-0.07,0.23,0.09,0.42,0.33,0.35c0.19-0.07,0.37-0.07,0.56-0.02c0.05,0.02,0.09,0.02,0.14,0.02c0.47-0.12,0.91,0.05,1.35,0.12
		c0.12,0.02,0.23,0.02,0.35,0c0.26-0.02,0.54-0.02,0.82,0c0.37,0.02,0.75,0.02,1.12,0c0.09-0.02,0.19-0.02,0.28-0.02
		c0.3,0.02,0.44,0.26,0.33,0.54c-0.07,0.16-0.23,0.26-0.42,0.23c-0.3-0.07-0.63-0.07-0.93,0.02C84.09,8.9,83.7,8.9,83.32,8.8
		c-0.12-0.02-0.23-0.02-0.35,0c-0.23,0.05-0.47,0.05-0.7,0.02c-0.4-0.02-0.79,0-1.17,0.07c-0.21,0.05-0.42,0.14-0.61,0.26
		c-0.09,0.05-0.14,0.14-0.12,0.23c0,0.44-0.07,0.89-0.09,1.33c-0.02,0.28,0,0.56,0.05,0.84c0.05,0.35,0,0.7,0.07,1.05
		c0.02,0.16,0,0.35-0.07,0.51c-0.09,0.21-0.09,0.44-0.02,0.65c0.09,0.42,0.12,0.86,0.05,1.28c-0.02,0.21-0.02,0.42-0.02,0.63
		c0,0.3,0.12,0.37,0.4,0.37c0.35-0.05,0.7-0.05,1.05-0.02c0.42,0.05,0.84,0.05,1.26,0c0.33,0,0.65,0.02,0.98,0.07
		c0.35,0.05,0.72,0.05,1.07-0.02c0.42-0.07,0.84-0.07,1.26-0.02c0.09,0.02,0.19,0.02,0.28,0c0.28-0.07,0.56-0.09,0.84-0.07
		c0.44,0.05,0.84-0.47,0.77-0.96c-0.07-0.61-0.02-1.21,0.14-1.79c0.02-0.07,0.05-0.14,0.09-0.19c0.07-0.09,0.19-0.14,0.3-0.12
		c0.12,0.02,0.21,0.09,0.23,0.21c0.05,0.07,0.07,0.16,0.07,0.26v0.49c0,0.72,0.02,1.45,0.09,2.17c0.02,0.16,0.07,0.33,0.14,0.47
		L89.29,16.26z"/>
	<path class="st8" d="M107.04,16.68c0.09,0,0.19,0.02,0.26,0.09c0.07,0.07,0.12,0.16,0.12,0.26c0,0.09-0.02,0.16-0.07,0.23
		s-0.12,0.09-0.21,0.09c-0.37,0.05-0.75,0.05-1.12,0.07c-0.21-0.02-0.42,0-0.61,0.07h-0.07c-0.28-0.12-0.54,0.02-0.79,0
		c-0.16,0-0.3-0.02-0.44-0.07c-0.05-0.02-0.09-0.07-0.12-0.12l-0.33-0.56c-0.05-0.05-0.09-0.09-0.16-0.12
		c-0.16-0.07-0.3-0.16-0.42-0.3c-0.35-0.33-0.72-0.61-1.14-0.84l-0.84-0.56c-0.02-0.02-0.05-0.05-0.05-0.07
		c-0.09-0.21-0.33-0.3-0.44-0.47c-0.19-0.23-0.4-0.44-0.63-0.63c-0.14-0.14-0.33-0.23-0.49-0.35c-0.12-0.07-0.21-0.16-0.3-0.26
		c-0.23-0.4-0.56-0.72-0.96-0.93c-0.09-0.05-0.16-0.14-0.19-0.23c-0.05-0.14-0.14-0.26-0.28-0.33c-0.23-0.14-0.47-0.26-0.68-0.4
		l-0.63-0.51c-0.09-0.12-0.23-0.19-0.37-0.19c-0.14,0-0.28,0.07-0.37,0.19l-0.35,0.4c-0.16,0.16-0.23,0.42-0.16,0.65l0.14,0.7v0.14
		c-0.09,0.49-0.05,1,0.14,1.47c0.09,0.26,0.12,0.54,0.07,0.82c-0.07,0.47-0.05,0.96,0.07,1.42c0.07,0.21,0.19,0.4,0.35,0.56
		c0.12,0.09,0.26,0.14,0.4,0.14c0.16,0.02,0.33,0.02,0.49,0.02c0.3,0,0.47,0.09,0.47,0.28c0,0.23-0.16,0.35-0.49,0.35h-1.89
		c-0.58,0-1.17,0.02-1.75,0c-0.42-0.02-0.84-0.07-1.26-0.12c-0.09-0.02-0.19-0.07-0.26-0.12c-0.09-0.05-0.14-0.16-0.12-0.28
		c0.02-0.12,0.12-0.21,0.23-0.23c0.14-0.02,0.3-0.05,0.47-0.05h0.77c0.3,0.02,0.49-0.12,0.56-0.49c0.02-0.12,0.02-0.26,0-0.37
		c-0.05-0.28-0.02-0.56,0.05-0.84c0.02-0.33,0-0.65-0.07-0.98c-0.02-0.16-0.02-0.33,0-0.49c0.07-0.35-0.02-0.7-0.02-1.05v-1.05
		c0-0.16,0.02-0.33,0.02-0.49c0-0.56,0.05-1.12,0.14-1.68c0.09-0.26,0.09-0.54-0.02-0.77c-0.02-0.07-0.02-0.14,0-0.21
		c0.14-0.42,0.02-0.84-0.05-1.26c-0.07-0.23-0.07-0.49-0.02-0.75V6.43l0.07-1.61c0-0.09,0-0.19,0.02-0.28c0.09-0.33,0.09-0.68,0-1
		c-0.05-0.21-0.07-0.44-0.09-0.68c-0.02-0.23,0-0.47,0-0.7c-0.02-0.44-0.09-0.51-0.58-0.61c-0.21-0.05-0.44-0.05-0.68-0.07
		c-0.12,0-0.23-0.02-0.33-0.07c-0.14-0.05-0.23-0.19-0.21-0.33c0-0.16,0.12-0.28,0.28-0.28l1.05-0.05h0.7
		c0.14,0,0.28-0.02,0.42-0.02c0.12-0.02,0.23-0.02,0.33,0c0.16,0.07,0.35,0.09,0.54,0.05l0.91-0.09c0.14,0,0.28,0.05,0.42,0.05
		c0.21,0,0.42-0.02,0.63-0.02c0.23,0,0.37,0.12,0.37,0.3c0,0.09-0.05,0.19-0.12,0.26c-0.07,0.07-0.16,0.12-0.26,0.12l-1.33,0.07
		c-0.23,0.02-0.3,0.09-0.37,0.33c-0.07,0.33-0.07,0.68,0,1c0.02,0.16,0,0.33,0,0.49c0,0.09,0,0.19,0.02,0.28
		c0.09,0.28,0.12,0.58,0.07,0.86v2.03c0,0.23,0.05,0.47,0.05,0.7c0,0.35-0.02,0.7-0.02,1.05c0,0.19,0.02,0.37,0.05,0.56
		c0,0.09,0.05,0.14,0.14,0.12c0.14,0,0.28-0.05,0.42-0.12c0.19-0.12,0.35-0.26,0.51-0.4c0.21-0.19,0.44-0.35,0.68-0.49
		c0.16-0.09,0.3-0.21,0.42-0.35l0.28-0.28l0.82-0.7l1.14-0.98l0.21-0.21c0.33-0.3,0.72-0.51,0.98-0.89l0.07-0.07
		c0.68-0.37,1.19-0.96,1.79-1.4c0.19-0.14,0.35-0.33,0.54-0.47c0.37-0.3,0.68-0.68,0.91-1.1c0.05-0.09,0.09-0.21,0.12-0.33
		c0.02-0.14,0.12-0.26,0.23-0.33c0.12-0.07,0.26-0.07,0.37-0.02c0.12,0.02,0.23,0.09,0.3,0.21c0.07,0.12,0.09,0.26,0.07,0.37
		l-0.07,0.42c-0.02,0.16-0.12,0.33-0.26,0.42c-0.02,0-0.05,0.02-0.07,0.05c-0.14,0.26-0.42,0.35-0.63,0.56
		c-0.12,0.09-0.23,0.16-0.37,0.21c-0.12,0.05-0.21,0.09-0.23,0.23c0,0.05-0.02,0.09-0.07,0.14c-0.49,0.49-1,0.96-1.54,1.4
		c-0.35,0.26-0.68,0.54-1.03,0.82l-0.56,0.51c-0.07,0.07-0.14,0.12-0.23,0.16c-0.16,0.05-0.3,0.16-0.37,0.33
		c-0.07,0.12-0.16,0.21-0.28,0.28c-0.23,0.16-0.51,0.28-0.7,0.54c-0.14,0.19-0.3,0.35-0.49,0.49l-0.35,0.35l-1.05,0.7l-0.07,0.07
		c-0.09,0.07-0.14,0.19-0.12,0.3c0.02,0.12,0.12,0.21,0.23,0.23c0.33,0.14,0.63,0.33,0.89,0.56c0.28,0.23,0.51,0.51,0.89,0.61
		c0.09,0.05,0.19,0.12,0.26,0.19l1.47,1.33c0.05,0.05,0.09,0.07,0.14,0.09c0.33,0.14,0.61,0.37,0.79,0.68
		c0.16,0.23,0.37,0.42,0.63,0.56c0.28,0.16,0.44,0.44,0.68,0.63l0.28,0.21c0.05,0.02,0.12,0.05,0.14,0.09
		c0.09,0.23,0.3,0.3,0.51,0.37c0.09,0.02,0.16,0.07,0.23,0.14c0.19,0.21,0.42,0.37,0.68,0.51c0.23,0.12,0.44,0.28,0.61,0.49
		c0.02,0.05,0.07,0.07,0.12,0.09c0.23,0.07,0.47,0.12,0.7,0.16h0.07c0.23,0.12,0.51,0.16,0.79,0.14L107.04,16.68z"/>
	<path class="st8" d="M113.73,2.58c0,0.21,0.05,0.42,0.02,0.63c-0.05,0.61-0.14,1.21-0.16,1.82c-0.05,0.58-0.05,1.17,0.02,1.75
		c0.05,0.4,0.05,0.79,0,1.19c-0.05,0.44-0.19,0.89-0.02,1.33c0.12,0.35,0.16,0.72,0.14,1.1c0,0.19-0.02,0.37-0.02,0.56
		c0,0.16,0.02,0.33,0.05,0.49c0.05,0.16,0.07,0.33,0.09,0.49l-0.09,2.73c0,0.26,0,0.51-0.02,0.77s0.12,0.49,0.35,0.58
		c0.14,0.05,0.28,0.07,0.42,0.07c0.3,0.02,0.61,0.05,0.91,0.09c0.23,0,0.42,0.19,0.42,0.42c0.05,0.28-0.02,0.4-0.35,0.56h-0.28
		c-0.05-0.02-0.09-0.05-0.14-0.05h-1.89c-0.07,0-0.14,0.02-0.21,0.05h-1.1c-0.12-0.02-0.23-0.05-0.35-0.05
		c-0.51,0-1.03,0.02-1.54,0.02c-0.14,0-0.28-0.02-0.4-0.09c-0.09-0.07-0.14-0.19-0.14-0.3c0.02-0.12,0.09-0.21,0.19-0.28
		c0.12-0.05,0.26-0.07,0.4-0.07l0.77-0.05c0.26-0.02,0.49-0.12,0.7-0.28c0.23-0.14,0.35-0.4,0.3-0.65
		c-0.09-0.79,0.12-1.56,0.16-2.33c0.02-0.42,0-0.84,0-1.26v-0.02c0.02-0.56-0.16-1.12-0.02-1.68c0.02-0.05,0.02-0.09,0-0.14
		c-0.14-0.35-0.07-0.72-0.07-1.1c0-0.4-0.05-0.79-0.05-1.19c0-0.21,0.02-0.42,0.02-0.63c0.02-0.12,0.02-0.23,0-0.33
		c-0.26-0.68-0.07-1.38-0.05-2.08c0.02-0.49,0.14-0.98,0.12-1.47c-0.02-0.42,0.05-0.86-0.14-1.28c-0.05-0.14-0.19-0.23-0.33-0.23
		c-0.3-0.05-0.58-0.09-0.86-0.16c-0.19-0.05-0.3-0.21-0.28-0.4c0.02-0.16,0.19-0.28,0.35-0.26c0.33,0,0.65,0.05,0.98,0.07
		c0.37,0.02,0.75,0.05,1.12,0.05c0.44,0,0.89-0.05,1.33-0.05h1.54c0.19-0.02,0.35,0.07,0.42,0.23v0.21
		c-0.12,0.14-0.28,0.23-0.44,0.26c-0.37,0.02-0.75,0.07-1.12,0.12C113.97,1.76,113.73,2.02,113.73,2.58z"/>
	<path class="st8" d="M135.21,16.41c0.09,0,0.16,0.05,0.21,0.12s0.07,0.16,0.05,0.26c-0.09,0.44-0.4,0.65-0.77,0.51
		c-0.19-0.07-0.4-0.09-0.61-0.07c-0.14,0.02-0.28-0.02-0.37-0.14c-0.12-0.16-0.3-0.26-0.51-0.26c-0.09,0-0.19-0.02-0.28-0.07
		c-0.51-0.23-1.03-0.47-1.51-0.72c-0.28-0.14-0.51-0.35-0.79-0.51c-0.26-0.14-0.47-0.35-0.61-0.58c-0.14-0.23-0.33-0.44-0.51-0.63
		c-0.28-0.33-0.58-0.65-0.86-1c-0.05-0.05-0.07-0.12-0.07-0.19c0-0.16-0.09-0.33-0.23-0.42c-0.14-0.07-0.23-0.21-0.23-0.37
		c0-0.21-0.12-0.4-0.28-0.51l-0.07-0.07c-0.12-0.23-0.35-0.33-0.54-0.49c-0.21-0.14-0.47-0.21-0.72-0.21
		c-0.23-0.05-0.47-0.07-0.7-0.07s-0.47,0.05-0.7,0.07c-0.12,0.02-0.23,0.02-0.35,0.02c-0.16-0.02-0.33-0.02-0.49,0
		c-0.28,0.05-0.56,0.05-0.84-0.02c-0.12-0.02-0.26,0-0.35,0.09c-0.09,0.09-0.14,0.21-0.12,0.33c0.02,0.19,0.07,0.37,0.12,0.56
		c0.07,0.21,0.07,0.42,0,0.61c-0.02,0.05-0.02,0.09-0.02,0.14c0,0.58-0.07,1.17,0.12,1.73c0.02,0.07,0.02,0.14,0,0.21
		c-0.09,0.42-0.12,0.84-0.07,1.26c0.05,0.28,0.28,0.49,0.56,0.51h0.63c0.07,0,0.14,0.02,0.21,0.05c0.21,0.05,0.35,0.19,0.35,0.33
		c-0.02,0.19-0.16,0.35-0.35,0.4c-0.07,0.02-0.14,0.02-0.21,0.02c-0.49-0.02-0.98-0.05-1.47-0.05c-0.93,0-1.87,0-2.8,0.02h-0.07
		c-0.44,0.12-0.91,0.12-1.35,0c-0.07-0.02-0.14-0.05-0.21-0.09c-0.21-0.12-0.28-0.26-0.23-0.4c0.07-0.26,0.19-0.35,0.44-0.35
		c0.16,0,0.33,0.02,0.49,0.07c0.33,0.05,0.65,0.05,0.98-0.02c0.33-0.02,0.63-0.19,0.82-0.47c0-0.02,0.02-0.05,0.05-0.05
		c0.19-0.12,0.21-0.28,0.19-0.51c0-0.23,0.02-0.47,0.07-0.7c0.02-0.23,0.05-0.47,0.05-0.7c0-0.72-0.02-1.45-0.07-2.17v-0.07
		c-0.07-0.47-0.07-0.93,0.02-1.4c0.02-0.26,0.02-0.51,0-0.77c-0.02-0.33-0.12-0.63-0.05-0.96c0.02-0.19,0.02-0.37,0.02-0.56
		c0-0.16,0.05-0.33,0.12-0.49c0.05-0.12,0.07-0.23,0.05-0.35c-0.02-0.19-0.02-0.37,0-0.56c0.02-0.21,0-0.42-0.07-0.61
		c-0.02-0.05-0.02-0.09-0.02-0.14c-0.02-0.61,0.09-1.24-0.09-1.84c-0.02-0.05-0.02-0.09-0.02-0.14c0.02-0.37-0.02-0.75-0.14-1.1
		c-0.05-0.16-0.07-0.35-0.07-0.54c0-0.16-0.07-0.33-0.19-0.44c-0.12-0.12-0.28-0.19-0.44-0.19c-0.37-0.02-0.75-0.05-1.12-0.05
		c-0.23,0-0.47-0.05-0.68-0.12c-0.07-0.02-0.14-0.07-0.19-0.14s-0.05-0.16-0.02-0.23c0.05-0.14,0.19-0.23,0.33-0.21
		c0.44,0.02,0.89-0.02,1.33-0.16c0.14-0.02,0.28-0.02,0.42,0h0.91c0.42,0.05,0.82,0.09,1.24,0.12c0.05,0,0.09-0.05,0.14-0.05
		c0.09-0.02,0.19-0.02,0.28,0c0.12,0.07,0.26,0.09,0.4,0.09c0.3,0,0.61,0.02,0.91,0.02c0.26,0,0.51-0.05,0.77-0.07l0.58-0.05
		c0.23-0.02,0.47-0.05,0.7-0.05c0.16,0,0.33,0.02,0.49,0.05c0.28,0.07,0.58,0.07,0.86,0c0.09-0.02,0.19-0.02,0.28,0l0.54,0.09
		l0.98,0.05c0.05,0,0.09,0,0.12,0.02c0.21,0.09,0.44,0.16,0.63,0.28c0.4,0.23,0.84,0.37,1.19,0.7c0.16,0.28,0.37,0.51,0.63,0.7
		c0.09,0.09,0.19,0.16,0.3,0.21c0.37,0.16,0.56,0.49,0.79,0.79v0.02c0.12,0.19,0.26,0.37,0.35,0.58c0.14,0.33,0.35,0.63,0.37,1
		c0.05,0.28,0.09,0.56,0.16,0.84c0.12,0.49-0.07,0.93-0.4,1.33c-0.02,0.02-0.05,0.05-0.05,0.07c-0.09,0.28-0.26,0.54-0.47,0.75
		c-0.14,0.14-0.26,0.3-0.42,0.42c-0.19,0.14-0.37,0.28-0.58,0.4c-0.26,0.16-0.51,0.35-0.77,0.49c-0.16,0.07-0.33,0.14-0.49,0.19
		l-0.16,0.05c-0.4,0.3-0.91,0.37-1.33,0.61c-0.09,0.05-0.19,0.07-0.28,0.07c-0.12,0.02-0.21,0.12-0.23,0.23
		c-0.02,0.12,0.02,0.26,0.12,0.33l0.14,0.14c0.19,0.16,0.4,0.3,0.58,0.49c0.21,0.21,0.4,0.44,0.58,0.68l0.07,0.14
		c0.12,0.35,0.44,0.54,0.58,0.86l0.07,0.07c0.3,0.33,0.61,0.65,0.93,0.96c0.19,0.19,0.42,0.33,0.63,0.49
		c0.05,0.05,0.12,0.09,0.14,0.16c0.16,0.35,0.51,0.44,0.82,0.61h0.07c0.49,0.4,1.1,0.54,1.7,0.61V16.41z M127.65,10.18
		c0.49-0.12,1-0.21,1.47-0.47c0.02-0.02,0.07-0.05,0.12-0.05c0.44-0.09,0.86-0.28,1.24-0.56c0.33-0.21,0.63-0.47,0.89-0.75
		c0.37-0.37,0.56-0.86,0.77-1.33c0.14-0.33,0.16-0.68,0.05-1c-0.09-0.23-0.12-0.49-0.05-0.75c0.05-0.12,0.02-0.26-0.07-0.35
		c-0.21-0.19-0.35-0.42-0.42-0.7c-0.05-0.23-0.21-0.42-0.42-0.54c-0.23-0.07-0.42-0.21-0.54-0.42c-0.02-0.05-0.05-0.09-0.09-0.14
		c-0.28-0.23-0.54-0.47-0.82-0.68c-0.28-0.21-0.58-0.37-0.91-0.49c-0.19-0.09-0.37-0.14-0.56-0.14c-0.07,0-0.14-0.02-0.21-0.05
		c-0.23-0.09-0.49-0.12-0.72-0.05c-0.3,0.09-0.63,0.12-0.96,0.05c-0.33-0.05-0.65-0.05-0.98,0.02c-0.19,0.05-0.4,0.02-0.58-0.05
		c-0.07-0.05-0.16-0.05-0.26-0.02c-0.3,0.14-0.65,0.16-0.98,0.09c-0.3-0.07-0.61-0.02-0.86,0.12c-0.14,0.05-0.21,0.21-0.16,0.37
		l0.07,0.19c0.12,0.4,0.26,0.77,0.07,1.17c-0.05,0.14-0.02,0.28,0.07,0.4c0.09,0.16,0.14,0.37,0.12,0.58v1.12
		c0.05,0.33,0.09,0.65,0.16,0.98c0.05,0.26,0.02,0.51-0.07,0.77c-0.05,0.21-0.09,0.42-0.12,0.63c-0.07,0.37,0.09,0.75,0.02,1.12
		c-0.02,0.07-0.02,0.14,0,0.21l0.21,0.42c0.02,0.02,0.07,0.05,0.12,0.05c0.47,0.12,0.96,0.16,1.45,0.16
		c0.35-0.02,0.7-0.02,1.05-0.02c0.4,0,0.79,0.02,1.19,0.05c0.16,0,0.3,0.02,0.44,0.05v-0.02h0.21L127.65,10.18z"/>
	<path class="st8" d="M154.54,9.06c-0.02,0.28-0.07,0.56-0.12,0.84c-0.05,0.44-0.21,0.89-0.47,1.26c-0.12,0.12-0.16,0.28-0.12,0.44
		c0,0.07-0.02,0.14-0.07,0.21l-0.14,0.28c-0.21,0.4-0.42,0.79-0.65,1.19l-0.26,0.28c-0.05,0.05-0.12,0.09-0.12,0.14
		c0,0.21-0.14,0.28-0.28,0.37c-0.16,0.07-0.3,0.21-0.37,0.37c-0.02,0.07-0.12,0.12-0.16,0.19l-0.44,0.49
		c-0.3,0.21-0.65,0.33-0.91,0.61c-0.05,0.05-0.09,0.07-0.16,0.09l-0.91,0.4c-0.3,0.16-0.63,0.33-0.96,0.47
		c-0.3,0.09-0.58,0.23-0.89,0.3c-0.42,0.09-0.86,0.14-1.28,0.21l-0.4,0.09l-0.23-0.07c-0.07-0.02-0.14-0.05-0.21-0.05
		c-0.56-0.02-1.12-0.07-1.68-0.07c-0.42,0-0.84-0.07-1.24-0.21c-0.19-0.05-0.37-0.12-0.54-0.23c-0.05-0.02-0.14,0-0.21,0
		s-0.14,0-0.21-0.02c-0.21-0.12-0.44-0.19-0.68-0.16c-0.09-0.37-0.44-0.4-0.7-0.56l-1.33-0.82c-0.26-0.4-0.61-0.72-0.82-1.14
		c-0.09-0.19-0.23-0.37-0.35-0.56c-0.02-0.28-0.16-0.54-0.37-0.7l-0.28-0.77l-0.21-0.56l-0.14-0.33c-0.05-0.14-0.07-0.28-0.07-0.42
		c0.02-0.23-0.05-0.47-0.19-0.65c0-0.51,0-1.05,0.02-1.56c0.02-0.16,0.07-0.33,0.12-0.47c0.02-0.05,0.07-0.09,0.07-0.14
		c0.05-0.33,0.12-0.65,0.21-0.96c0-0.07,0-0.14,0.02-0.21c0.16-0.47,0.26-0.96,0.56-1.35c0.09-0.47,0.4-0.79,0.68-1.14
		c0.23-0.3,0.49-0.58,0.75-0.86c0.19-0.26,0.47-0.42,0.77-0.49c0.16-0.26,0.4-0.47,0.68-0.58c0.14-0.07,0.26-0.19,0.4-0.26
		c0.19-0.14,0.37-0.26,0.58-0.35c0.28-0.12,0.58-0.19,0.86-0.28c0.12-0.05,0.23-0.09,0.35-0.12l0.49-0.14l0.7-0.14
		c0.23-0.3,0.61-0.16,0.91-0.28c0.12-0.02,0.23-0.02,0.33,0c0.7,0.16,1.42,0.23,2.15,0.21c0.21,0,0.42,0.05,0.63,0.12
		c0.42,0.16,0.89,0.23,1.31,0.42c0.26,0.09,0.51,0.21,0.75,0.33c0.47,0.28,0.91,0.58,1.35,0.89c0.07,0.05,0.14,0.09,0.21,0.12
		c0.16,0.07,0.3,0.19,0.4,0.35c0.07,0.09,0.16,0.16,0.28,0.21c0.26,0.12,0.47,0.35,0.56,0.63c0.05,0.12,0.21,0.21,0.26,0.33
		c0.05,0.14,0.07,0.28,0.21,0.37c0.09,0.07,0.19,0.14,0.26,0.23c0.05,0.05,0.09,0.09,0.09,0.14c0,0.23,0.16,0.4,0.23,0.58l0.28,0.7
		l0.19,0.51c0.19,0.4,0.3,0.82,0.35,1.24L154.54,9.06z M153.09,9.9c0.09-0.26,0.12-0.54,0.07-0.82c-0.07-0.23-0.14-0.47-0.19-0.7
		c-0.05-0.23-0.09-0.44-0.16-0.65c-0.05-0.14-0.07-0.28-0.09-0.42c0-0.07-0.02-0.14-0.05-0.21c-0.16-0.28-0.28-0.58-0.33-0.91
		c-0.09-0.21-0.26-0.4-0.37-0.61c-0.14-0.28-0.3-0.56-0.47-0.82c-0.35-0.44-0.35-0.28-0.93-1.03c-0.33-0.63-0.37-0.51-0.47-0.56
		c-0.49-0.33-1-0.58-1.54-0.79c-0.07-0.02-0.14-0.07-0.19-0.12c-0.05-0.05-0.09-0.07-0.14-0.09l-0.77-0.21l-0.21-0.07
		c-0.75-0.23-1.51-0.35-2.28-0.35h-0.49c-0.21,0-0.42,0.02-0.63,0.07c-0.28,0.07-0.56,0.21-0.86,0.16c-0.05,0-0.07,0.02-0.09,0.05
		c-0.42,0.3-0.98,0.35-1.35,0.72l-0.35,0.21l-0.42,0.3c-0.3,0.26-0.56,0.56-0.75,0.91l-0.07,0.07c-0.19,0.21-0.33,0.44-0.4,0.7
		c-0.02,0.09-0.07,0.19-0.12,0.28c-0.14,0.23-0.28,0.49-0.4,0.75c-0.12,0.37-0.21,0.75-0.28,1.14c-0.07,0.33-0.09,0.68-0.16,1
		c-0.07,0.3-0.07,0.63,0.02,0.93c-0.16,0.47-0.05,0.91,0.09,1.35c0.14,0.35,0.23,0.7,0.28,1.07c0.02,0.19,0.09,0.37,0.19,0.54
		c0.28,0.51,0.72,0.93,0.96,1.49l0.07,0.12l0.28,0.42c0.16,0.26,0.26,0.58,0.61,0.68c0.3,0.26,0.54,0.61,0.91,0.77
		c0.33,0.37,0.79,0.54,1.21,0.75c0.3,0.12,0.63,0.21,0.96,0.26l0.28,0.07c0.07,0.02,0.14,0.02,0.21,0.02
		c0.23-0.05,0.47-0.05,0.7,0.02l0.35,0.07v-0.02h0.07c0.44-0.07,0.89-0.16,1.35-0.21c0.12-0.02,0.21-0.14,0.33-0.16
		c0.3-0.05,0.61-0.14,0.89-0.28l1-0.42l0.54-0.44c0.37-0.28,0.72-0.58,1.03-0.93l1.14-1.38c0.02-0.21,0.12-0.42,0.26-0.58
		c0.21-0.21,0.21-0.54,0.47-0.7c0.02-0.02,0.02-0.07,0.02-0.09c0.07-0.26,0.16-0.51,0.26-0.77c0.09-0.21,0.16-0.44,0.21-0.68
		L153.09,9.9z"/>
</g>
</svg>
